<svg width="38" height="41" viewBox="0 0 38 41" fill="none" xmlns="http://www.w3.org/2000/svg">
<path d="M35.25 3.3125H29.5625V0.875C29.5625 0.659512 29.4769 0.452849 29.3245 0.300476C29.1722 0.148103 28.9655 0.0625 28.75 0.0625C28.5345 0.0625 28.3278 0.148103 28.1755 0.300476C28.0231 0.452849 27.9375 0.659512 27.9375 0.875V3.3125H10.0625V0.875C10.0625 0.659512 9.9769 0.452849 9.82452 0.300476C9.67215 0.148103 9.46549 0.0625 9.25 0.0625C9.03451 0.0625 8.82785 0.148103 8.67548 0.300476C8.5231 0.452849 8.4375 0.659512 8.4375 0.875V3.3125H2.75C2.10353 3.3125 1.48355 3.56931 1.02643 4.02643C0.569307 4.48355 0.3125 5.10353 0.3125 5.75V38.25C0.3125 38.8965 0.569307 39.5165 1.02643 39.9736C1.48355 40.4307 2.10353 40.6875 2.75 40.6875H35.25C35.8965 40.6875 36.5165 40.4307 36.9736 39.9736C37.4307 39.5165 37.6875 38.8965 37.6875 38.25V5.75C37.6875 5.10353 37.4307 4.48355 36.9736 4.02643C36.5165 3.56931 35.8965 3.3125 35.25 3.3125ZM2.75 4.9375H8.4375V7.375C8.4375 7.59049 8.5231 7.79715 8.67548 7.94952C8.82785 8.1019 9.03451 8.1875 9.25 8.1875C9.46549 8.1875 9.67215 8.1019 9.82452 7.94952C9.9769 7.79715 10.0625 7.59049 10.0625 7.375V4.9375H27.9375V7.375C27.9375 7.59049 28.0231 7.79715 28.1755 7.94952C28.3278 8.1019 28.5345 8.1875 28.75 8.1875C28.9655 8.1875 29.1722 8.1019 29.3245 7.94952C29.4769 7.79715 29.5625 7.59049 29.5625 7.375V4.9375H35.25C35.4655 4.9375 35.6722 5.0231 35.8245 5.17548C35.9769 5.32785 36.0625 5.53451 36.0625 5.75V13.0625H1.9375V5.75C1.9375 5.53451 2.0231 5.32785 2.17548 5.17548C2.32785 5.0231 2.53451 4.9375 2.75 4.9375ZM35.25 39.0625H2.75C2.53451 39.0625 2.32785 38.9769 2.17548 38.8245C2.0231 38.6722 1.9375 38.4655 1.9375 38.25V14.6875H36.0625V38.25C36.0625 38.4655 35.9769 38.6722 35.8245 38.8245C35.6722 38.9769 35.4655 39.0625 35.25 39.0625ZM14.9375 20.375V33.375C14.9375 33.5905 14.8519 33.7972 14.6995 33.9495C14.5472 34.1019 14.3405 34.1875 14.125 34.1875C13.9095 34.1875 13.7028 34.1019 13.5505 33.9495C13.3981 33.7972 13.3125 33.5905 13.3125 33.375V21.6892L11.2386 22.7272C11.0457 22.8236 10.8225 22.8395 10.6179 22.7713C10.4133 22.7031 10.2442 22.5565 10.1478 22.3636C10.0514 22.1707 10.0355 21.9475 10.1037 21.7429C10.1719 21.5383 10.3185 21.3692 10.5114 21.2728L13.7614 19.6478C13.8853 19.5858 14.023 19.5565 14.1615 19.5627C14.2999 19.569 14.4344 19.6105 14.5523 19.6833C14.6702 19.7562 14.7674 19.858 14.8348 19.9791C14.9023 20.1001 14.9376 20.2364 14.9375 20.375ZM27.125 26.0625L22.25 32.5625H27.125C27.3405 32.5625 27.5472 32.6481 27.6995 32.8005C27.8519 32.9528 27.9375 33.1595 27.9375 33.375C27.9375 33.5905 27.8519 33.7972 27.6995 33.9495C27.5472 34.1019 27.3405 34.1875 27.125 34.1875H20.625C20.4741 34.1875 20.3262 34.1455 20.1978 34.0662C20.0695 33.9868 19.9658 33.8733 19.8983 33.7384C19.8308 33.6034 19.8022 33.4523 19.8158 33.302C19.8293 33.1518 19.8845 33.0082 19.975 32.8875L25.8209 25.0936C26.1417 24.6714 26.3144 24.1552 26.3125 23.625C26.3131 23.0879 26.1363 22.5657 25.8096 22.1394C25.4828 21.7132 25.0245 21.4067 24.5057 21.2678C23.9869 21.1288 23.4367 21.1651 22.9407 21.371C22.4446 21.5768 22.0304 21.9408 21.7625 22.4062C21.6501 22.5831 21.4737 22.7097 21.2701 22.7595C21.0666 22.8094 20.8516 22.7787 20.6702 22.6738C20.4888 22.5689 20.3549 22.398 20.2965 22.1967C20.2381 21.9955 20.2597 21.7794 20.3569 21.5938C20.804 20.8193 21.4943 20.2141 22.3205 19.8719C23.1467 19.5297 24.0627 19.4697 24.9265 19.7011C25.7903 19.9326 26.5535 20.4426 27.0979 21.152C27.6424 21.8615 27.9375 22.7307 27.9375 23.625C27.9406 24.5045 27.6552 25.3608 27.125 26.0625Z" fill="black"/>
</svg>
