<svg width="62" height="63" viewBox="0 0 62 63" fill="none" xmlns="http://www.w3.org/2000/svg">
<path d="M52.3239 8.42999H29.937C29.937 14.01 34.4533 18.5282 40.0348 18.5282H44.152V22.5127C44.152 28.0927 48.6702 32.611 54.2502 32.611V10.3564C54.2498 9.84557 54.0468 9.35581 53.6856 8.99464C53.3244 8.63346 52.8346 8.43038 52.3239 8.42999Z" fill="#2684FF"/>
<path d="M41.2306 19.59H18.8433C18.8433 25.1695 23.3601 29.6877 28.9396 29.6877H33.0587V33.6722C33.0587 39.2522 37.577 43.7704 43.1569 43.7704V21.5158C43.1562 21.0052 42.953 20.5156 42.5919 20.1545C42.2308 19.7934 41.7413 19.5902 41.2306 19.5895V19.59Z" fill="url(#paint0_linear_275_273)"/>
<path d="M30.1373 30.749H7.75C7.75 36.331 12.2663 40.8473 17.8482 40.8473H21.9654V44.8337C21.9654 50.4137 26.4837 54.93 32.0632 54.93V32.6773C32.0627 32.1665 31.8597 31.6768 31.4987 31.3154C31.1377 30.954 30.6481 30.7505 30.1373 30.7495V30.749Z" fill="url(#paint1_linear_275_273)"/>
<defs>
<linearGradient id="paint0_linear_275_273" x1="42.691" y1="19.6151" x2="33.1662" y2="29.4363" gradientUnits="userSpaceOnUse">
<stop offset="0.176" stop-color="#0052CC"/>
<stop offset="1" stop-color="#2684FF"/>
</linearGradient>
<linearGradient id="paint1_linear_275_273" x1="32.2419" y1="30.8352" x2="21.2292" y2="41.5496" gradientUnits="userSpaceOnUse">
<stop offset="0.176" stop-color="#0052CC"/>
<stop offset="1" stop-color="#2684FF"/>
</linearGradient>
</defs>
</svg>
