<svg width="68" height="64" viewBox="0 0 68 64" fill="none" xmlns="http://www.w3.org/2000/svg">
<path d="M17.3337 63.3333C12.7225 63.3333 8.79255 61.7078 5.54366 58.4567C2.29477 55.2056 0.669214 51.2756 0.666992 46.6667C0.666992 42.0556 2.29255 38.1256 5.54366 34.8767C8.79477 31.6278 12.7248 30.0022 17.3337 30C21.9448 30 25.8759 31.6256 29.127 34.8767C32.3781 38.1278 34.0025 42.0578 34.0003 46.6667C34.0003 51.2778 32.3748 55.2089 29.1237 58.46C25.8725 61.7111 21.9425 63.3356 17.3337 63.3333ZM62.667 60L41.3337 38.6667C40.667 37.9444 39.9592 37.2089 39.2103 36.46C38.4614 35.7111 37.7248 35.0022 37.0003 34.3333C39.1114 33 40.8059 31.2222 42.0837 29C43.3614 26.7778 44.0003 24.3333 44.0003 21.6667C44.0003 17.5 42.5425 13.9589 39.627 11.0433C36.7114 8.12778 33.1692 6.66889 29.0003 6.66667C24.8337 6.66667 21.2925 8.12556 18.377 11.0433C15.4614 13.9611 14.0025 17.5022 14.0003 21.6667C14.0003 22 14.0148 22.32 14.0437 22.6267C14.0725 22.9333 14.1137 23.2522 14.167 23.5833C13.167 23.6944 12.0703 23.9167 10.877 24.25C9.68366 24.5833 8.61366 24.9722 7.66699 25.4167C7.55588 24.8056 7.47255 24.1944 7.41699 23.5833C7.36144 22.9722 7.33366 22.3333 7.33366 21.6667C7.33366 15.6111 9.43144 10.4867 13.627 6.29333C17.8225 2.1 22.947 0.00222222 29.0003 0C35.0559 0 40.1814 2.09778 44.377 6.29333C48.5725 10.4889 50.6692 15.6133 50.667 21.6667C50.667 24.0556 50.2925 26.32 49.5437 28.46C48.7948 30.6 47.7525 32.5578 46.417 34.3333L67.3337 55.3333L62.667 60ZM11.417 54.9167L17.3337 49L23.167 54.9167L25.5837 52.5833L19.667 46.6667L25.5837 40.75L23.2503 38.4167L17.3337 44.3333L11.417 38.4167L9.08366 40.75L15.0003 46.6667L9.08366 52.5833L11.417 54.9167Z" fill="#505050"/>
</svg>
