<svg width="43" height="43" viewBox="0 0 43 43" fill="none" xmlns="http://www.w3.org/2000/svg">
<path d="M11.499 41.6665H31.8325" stroke="black" stroke-width="2" stroke-linecap="round" stroke-linejoin="round"/>
<path d="M1.33301 31.4998V5.06621C1.33301 3.98766 1.76146 2.95327 2.52412 2.19062C3.28677 1.42797 4.32115 0.999512 5.39971 0.999512H37.9333C39.0119 0.999512 40.0462 1.42797 40.8089 2.19062C41.5715 2.95327 42 3.98766 42 5.06621V31.4998C42 32.5783 41.5715 33.6127 40.8089 34.3753C40.0462 35.138 39.0119 35.5665 37.9333 35.5665H5.39971C4.32115 35.5665 3.28677 35.138 2.52412 34.3753C1.76146 33.6127 1.33301 32.5783 1.33301 31.4998Z" stroke="black" stroke-width="2"/>
<path d="M15.5664 18.283L19.6331 22.3497L27.7665 14.2163" stroke="black" stroke-width="2" stroke-linecap="round" stroke-linejoin="round"/>
</svg>
