<svg width="14" height="14" viewBox="0 0 14 14" fill="none" xmlns="http://www.w3.org/2000/svg">
<path fill-rule="evenodd" clip-rule="evenodd" d="M8.78833 9.58455C7.77731 10.3924 6.49533 10.7824 5.20571 10.6746C3.91609 10.5667 2.71672 9.96913 1.85393 9.00459C0.991136 8.04004 0.530424 6.78174 0.566413 5.48812C0.602403 4.19449 1.13236 2.96375 2.04745 2.04867C2.96253 1.13358 4.19327 0.603624 5.48689 0.567634C6.78052 0.531644 8.03882 0.992357 9.00337 1.85515C9.96791 2.71794 10.5655 3.91731 10.6733 5.20693C10.7812 6.49655 10.3912 7.77853 9.58333 8.78955L13.4503 12.6558C13.5056 12.7073 13.5499 12.7694 13.5807 12.8384C13.6114 12.9074 13.6279 12.9819 13.6293 13.0574C13.6306 13.1329 13.6167 13.208 13.5884 13.278C13.5601 13.348 13.518 13.4117 13.4646 13.4651C13.4112 13.5185 13.3476 13.5606 13.2775 13.5889C13.2075 13.6172 13.1325 13.6311 13.0569 13.6297C12.9814 13.6284 12.9069 13.6119 12.8379 13.5811C12.7689 13.5504 12.7068 13.5061 12.6553 13.4508L8.78833 9.58455ZM2.84458 8.41305C2.29411 7.86252 1.91919 7.16117 1.76721 6.39763C1.61523 5.63409 1.69301 4.84263 1.99071 4.12327C2.28842 3.40392 2.79269 2.78897 3.43979 2.35613C4.08689 1.92328 4.84779 1.69199 5.62631 1.69146C6.40483 1.69094 7.16603 1.92121 7.81372 2.35318C8.4614 2.78515 8.9665 3.39943 9.26517 4.11838C9.56384 4.83733 9.64268 5.62868 9.49173 6.39243C9.34078 7.15618 8.96681 7.85803 8.41708 8.4093L8.41333 8.41305L8.40958 8.41605C7.6709 9.15302 6.6699 9.56665 5.62646 9.56609C4.58302 9.56552 3.58246 9.15081 2.84458 8.41305Z" fill="black"/>
</svg>
